# xmcd
#
# Track frame offsets:
# 150
# 8572
# 24699
# 42351
# 58120
# 78295
# 103644
# 126274
# 143103
# 162295
# 186705
# 205157
# 214316
# 232981
# 252936
# 266321
# 283198
# 301234
# 317250
# 336402
#
# Disc length: 4720 seconds
#
# Revision: 0
# Processed by: cddbd v1.5.1PL0 Copyright (c) Steve Scherf et al.
# Submitted via: Audion 3.0.2 (http://www.panic.com/audion/)
#
DISCID=20126e14
DTITLE=Alicia Keys - Song In A Minor
DYEAR=1900
DGENRE=
TTITLE0=Piano and I
TTITLE1=Girlfriend
TTITLE2=How Come Don't Call Me
TTITLE3=Fallin
TTITLE4=Trobles
TTITLE5=Rock Wit U
TTITLE6=A Woman's Worth
TTITLE7=Jane Doe
TTITLE8=Goodbye
TTITLE9=The Life
TTITLE10=Mr. Man ( Duet With Jimmy Cozier )
TTITLE11=Never Felt This Way ( Interlude )
TTITLE12=ButterFlyz
TTITLE13=Why Do I Feel So Sad
TTITLE14=Caged Bird
TTITLE15=Lovin U
TTITLE16=Rear View Mirror
TTITLE17=Fallin' ( remix ) Without Red
TTITLE18=Fallin' ( Remix Instrumental )
TTITLE19=Fallin' Feat Busts Rhymes and Rampage(Extended Remix)
EXTD=
EXTT0=
EXTT1=
EXTT2=
EXTT3=
EXTT4=
EXTT5=
EXTT6=
EXTT7=
EXTT8=
EXTT9=
EXTT10=
EXTT11=
EXTT12=
EXTT13=
EXTT14=
EXTT15=
EXTT16=
EXTT17=
EXTT18=
EXTT19=
PLAYORDER=
